<?xml version="1.0" encoding="UTF-8"?> <svg xmlns="http://www.w3.org/2000/svg" width="76" height="25" viewBox="0 0 76 25" fill="none"> <path d="M45.8265 8.98558C44.407 8.98558 43.3633 9.54919 42.7162 10.4885C42.1317 9.52832 41.1715 8.98558 39.8773 8.98558C38.5413 8.98558 37.5602 9.50744 36.9757 10.3842V9.27782H34.2829V19.7151H36.9757V13.8493C36.9757 12.2838 37.7898 11.4905 38.9379 11.4905C40.0651 11.4905 40.6914 12.242 40.6914 13.4736V19.7151H43.3842V13.8493C43.3842 12.2838 44.1357 11.4905 45.3255 11.4905C46.4528 11.4905 47.079 12.242 47.079 13.4736V19.7151H49.7718V13.2857C49.7718 10.6764 48.2062 8.98558 45.8265 8.98558Z" fill="#8392B8"></path> <path d="M59.9912 9.27782V10.5094C59.2397 9.57007 58.1125 8.98558 56.5886 8.98558C53.8123 8.98558 51.5161 11.3862 51.5161 14.4965C51.5161 17.6068 53.8123 20.0073 56.5886 20.0073C58.1125 20.0073 59.2397 19.4228 59.9912 18.4835V19.7151H62.684V9.27782H59.9912ZM57.0896 17.4398C55.4405 17.4398 54.209 16.2499 54.209 14.4965C54.209 12.743 55.4405 11.5531 57.0896 11.5531C58.7596 11.5531 59.9912 12.743 59.9912 14.4965C59.9912 16.2499 58.7596 17.4398 57.0896 17.4398Z" fill="#8392B8"></path> <path d="M71.096 11.8663V9.27782H68.7371V6.35539L66.0443 7.1695V9.27782H64.2282V11.8663H66.0443V16.2082C66.0443 19.0262 67.3177 20.1326 71.096 19.7151V17.2728C69.5512 17.3563 68.7371 17.3354 68.7371 16.2082V11.8663H71.096Z" fill="#8392B8"></path> <path d="M74.3305 8.02535C75.249 8.02535 76.0005 7.27387 76.0005 6.37626C76.0005 5.47866 75.249 4.7063 74.3305 4.7063C73.4329 4.7063 72.6814 5.47866 72.6814 6.37626C72.6814 7.27387 73.4329 8.02535 74.3305 8.02535ZM72.9946 19.7151H75.6874V9.27782H72.9946V19.7151Z" fill="#8392B8"></path> <path d="M23.9417 11.4713C24.0823 10.9049 24.2228 10.244 24.2697 9.53589C24.2697 10.1496 24.1525 10.8104 23.9417 11.4713Z" fill="#00AB62"></path> <path d="M3.58361 14.9168C3.3962 14.2087 3.32593 13.5242 3.32593 12.887C3.3962 14.0907 3.58361 14.8696 3.58361 14.9168Z" fill="#00B4FF"></path> <path d="M3.58361 14.9171C3.56019 14.8699 3.37278 14.091 3.32593 12.8872V12.8636C3.32593 12.2028 3.3962 11.5891 3.53676 10.999C3.3025 13.0053 3.56019 14.7755 3.58361 14.9171Z" fill="#706766"></path> <path d="M7.01262 18.2746C6.30333 20.0393 5.63534 22.0089 5.22842 23.2564C4.98325 24.008 4.28522 24.5231 3.49463 24.5231C2.79853 24.5231 2.58601 23.9487 3.23474 23.6963C3.41252 23.6272 3.53999 23.5854 3.55787 23.5796C3.55979 23.579 3.56013 23.579 3.56201 23.5782C3.62084 23.5558 4.95952 22.9514 3.60688 14.9167C5.87917 16.0969 6.68466 16.5044 7.01262 18.2746Z" fill="#FFC766"></path> <path d="M3.58361 14.9168C3.3962 14.2087 3.32593 13.5242 3.32593 12.887C3.3962 14.0907 3.58361 14.8696 3.58361 14.9168Z" fill="#FFA200"></path> <path d="M8.52852 15.4832C7.09955 15.4124 5.32824 15.5273 3.58569 14.9168C3.65597 14.7752 4.8021 12.0844 6.32478 8.85085C7.05098 8.56762 8.01104 8.2379 9.13374 8.68636C9.13374 8.68636 9.11295 8.71225 9.18323 8.73585C9.46526 10.9148 9.13286 13.255 8.52852 15.4832Z" fill="#EA6766"></path> <path d="M8.52852 15.4832C8.15371 17.041 7.63834 18.5044 7.1464 19.7553C6.79502 17.9851 5.85799 16.0733 3.58569 14.9167C5.45975 15.2472 7.09955 15.4124 8.52852 15.4832Z" fill="#EA6766"></path> <path d="M10.0968 15.5311C9.56232 19.2235 8.93457 22.8532 8.37825 24.3392C8.20575 24.7999 7.74453 24.9958 7.25255 24.9958H7.0826C6.41223 24.9958 5.86031 24.7763 6.39945 24.3779C6.5965 24.2323 7.10798 23.7791 7.15082 23.5379C7.26986 22.8677 7.45635 21.3762 7.14512 19.756C7.63706 18.505 8.15242 17.0417 8.52724 15.4839C9.08945 15.5311 9.60482 15.5311 10.0968 15.5311Z" fill="#EA6766"></path> <path d="M11.3589 5.56574C10.9373 5.47133 10.5625 5.40052 10.1877 5.35331C9.62543 5.28251 9.11007 5.28251 8.64156 5.30611C8.64156 5.30611 8.64156 5.32971 8.66498 5.32971C9.03979 6.085 11.1481 7.38315 11.1481 7.38315C11.1481 8.94093 9.55341 8.75783 9.13174 8.71062C9.27229 11.0237 9.02885 13.4491 8.51349 15.5497C9.0757 15.5734 10.096 15.5445 10.5879 15.5209C11.2907 10.5879 11.3824 5.56574 11.3589 5.56574C11.3824 5.56574 11.3824 5.56574 11.3589 5.56574Z" fill="#EA6766"></path> <path d="M6.3472 8.85132C4.82453 12.0849 3.65324 14.7756 3.58297 14.9172C3.58297 14.6812 3.48926 10.0079 6.3472 8.85132Z" fill="#EA6766"></path> <path d="M8.64478 5.26416C8.43394 5.28776 8.22311 5.31136 8.03571 5.33497C8.15283 5.07533 8.29339 4.8157 8.43394 4.53247C8.50422 4.72129 8.64478 5.21695 8.64478 5.26416Z" fill="#706766"></path> <path d="M8.43466 4.53247C8.29411 4.7921 8.17698 5.05173 8.03642 5.33497C7.68503 5.38217 7.33365 5.47658 7.02911 5.59459C7.82559 4.91012 8.43466 4.53247 8.43466 4.53247Z" fill="#706766"></path> <path d="M11.1513 7.34079C11.1513 8.89858 9.55351 8.758 9.13184 8.71079C9.06157 7.53065 8.99611 6.44389 8.66815 5.28735C9.01954 6.04264 11.1513 7.34079 11.1513 7.34079Z" fill="#706766"></path> <path d="M7.02818 5.59497C5.78662 6.65709 4.12339 8.52171 3.53775 11.0236C3.79543 8.87575 4.63876 6.46827 7.02818 5.59497Z" fill="#706766"></path> <path d="M8.03459 5.33447C7.44895 6.51461 6.88673 7.71835 6.34794 8.85129C3.46658 10.0078 3.5837 14.6812 3.5837 14.9172C3.56028 14.7756 3.3026 13.0054 3.51343 11.0227C4.09907 8.49724 5.78572 6.65623 7.00386 5.5941C7.33182 5.47609 7.68321 5.38168 8.03459 5.33447Z" fill="#706766"></path> <path d="M9.13407 8.71156C9.06379 8.71156 9.05982 8.71156 9.05982 8.71156C7.93539 8.42832 7.07654 8.54462 6.35034 8.82786C6.88913 7.69492 7.45135 6.49118 8.037 5.31104C8.2244 5.28744 8.43523 5.26384 8.64607 5.24023C8.64607 5.24023 8.64607 5.26384 8.66949 5.26384C8.99745 6.44397 9.06379 7.55502 9.13407 8.71156Z" fill="#706766"></path> <path d="M21.5363 19.7894C21.6704 20.1205 21.7019 20.4894 21.5931 20.8297L20.7042 23.6089C20.5256 24.1676 20.0062 24.5468 19.4196 24.5468H19.2832C18.3956 24.5468 18.0997 23.8848 18.916 23.5363C19.0196 23.492 19.0846 23.4672 19.0846 23.4672C19.0846 23.4672 20.7705 21.1745 17.4761 17.2063C16.6328 16.3802 16.0706 15.3653 15.6957 14.2796C16.2345 13.9492 16.673 13.4928 16.9776 13.0916C17.0713 13.2804 17.233 13.4576 17.2746 13.6608C17.298 13.6844 17.3488 13.7125 17.3488 13.7597C17.8642 14.5622 18.5114 15.3026 19.3781 15.9871C20.034 16.5063 20.539 17.0269 20.9372 17.5462C21.0516 18.4676 21.3336 19.2889 21.5363 19.7894Z" fill="#CAEE66"></path> <path d="M16.9371 13.1231C17.0308 13.3119 17.1479 13.4771 17.2416 13.6659C17.1479 13.4771 17.0308 13.3119 16.9371 13.1231C16.328 12.0373 15.9063 10.7392 15.7189 9.1814C15.8829 10.4323 16.2343 11.8013 16.9371 13.1231Z" fill="#A6E200"></path> <path d="M23.9183 11.4946C23.7309 12.1319 23.5435 12.604 23.4732 12.7692C23.5435 12.4623 23.6606 12.1555 23.7777 11.8487C23.848 11.7307 23.8949 11.6126 23.9183 11.4946Z" fill="#A6E200"></path> <path d="M24.2451 9.51193C24.1748 6.84482 21.8556 4.69697 17.8264 4.74417C17.9201 4.74417 18.0138 4.74417 18.1075 4.74417C18.2481 4.74417 18.3886 4.74417 18.5526 4.74417C19.6068 4.74417 20.4735 4.88579 21.1763 5.09821H21.1997C23.7531 5.8771 24.3153 7.78893 24.2451 9.51193Z" fill="#A6E200"></path> <path d="M24.5092 19.3489C24.6868 19.6764 24.762 20.057 24.6824 20.421L23.9145 23.9352C23.7791 24.5545 23.2308 24.9959 22.5969 24.9959H22.1318C21.2764 24.9959 21.0214 24.4022 21.8254 24.1098C21.8448 24.1028 21.8555 24.0991 21.8555 24.0991C21.8555 24.0991 24.8827 22.7936 20.9184 17.6685C20.895 17.4797 20.9184 17.1835 20.9184 16.9946C21.9726 17.5847 23.0502 17.9623 23.9872 18.222C24.1708 18.6898 24.3593 19.0724 24.5092 19.3489Z" fill="#66AA66"></path> <path d="M21.1057 18.0053C20.5662 16.9263 20.004 16.5222 19.3715 16.0029C18.5047 15.3184 17.8488 14.5396 17.31 13.7371C18.2939 15.224 20.4314 15.7799 20.9176 17.0178C20.9176 17.2067 22.859 20.0283 21.1057 18.0053Z" fill="#66AA66"></path> <path d="M23.9629 18.2218C23.0258 17.9621 21.9483 17.5845 20.8941 16.9944C20.8941 15.5547 21.4329 13.9025 23.4475 12.8167C23.4475 12.8167 23.4475 12.7931 23.4709 12.7695C22.9087 14.8938 23.4241 16.9 23.9629 18.2218Z" fill="#66AA66"></path> <path d="M24.2448 9.51193C24.2214 10.2436 24.0809 10.9045 23.9168 11.471C23.9168 11.471 23.9168 11.471 23.9168 11.4945C23.87 11.6126 23.8232 11.7306 23.7763 11.8486C23.6358 12.1554 23.5421 12.4623 23.4718 12.7691C23.4483 12.8163 23.4483 12.8163 23.4483 12.8163C21.4337 13.9021 20.8949 15.5542 20.9184 17.0176C19.6065 16.2859 18.2947 15.2474 17.3108 13.7368C17.2874 13.7132 17.264 13.6896 17.264 13.6424C17.1468 13.4772 17.0531 13.2884 16.9594 13.0995C19.1614 9.98399 15.8132 4.94941 15.8132 4.94941C15.8132 4.94941 15.8818 4.90939 15.999 4.90939C16.0224 4.90939 16.0692 4.90939 16.0927 4.88579C16.7017 4.81498 17.264 4.76777 17.8028 4.74417H17.8262C21.8554 4.69697 24.1745 6.84482 24.2448 9.51193Z" fill="#66AA66"></path> <path d="M15.7188 14.2799C14.5475 15.0116 12.7672 15.5072 10.1201 15.5308C10.8463 10.5743 11.3596 5.56829 11.3596 5.56829C12.5074 5.6863 14.0087 5.54686 15.8125 4.95679C15.7188 5.21642 14.3367 10.2438 15.7188 14.2799Z" fill="#EA6766"></path> <path d="M16.9763 13.1162C16.6718 13.541 16.2282 13.9489 15.6894 14.2793C14.3073 10.2433 15.7181 5.23375 15.7884 4.97412C15.765 5.13934 15.4135 6.89175 15.6947 9.13401V9.15761C15.9055 10.739 16.3907 12.0304 16.9763 13.1162Z" fill="#EA6766"></path> <path d="M15.5979 9.08912C15.3168 6.82325 15.7386 5.1227 15.8128 4.94946C15.8128 4.94946 19.3936 10.2668 16.9265 13.141C16.3408 12.0553 15.7853 10.6469 15.5979 9.08912Z" fill="#66AA66"></path> <path d="M23.8009 11.8247C23.8478 11.7067 23.8946 11.5887 23.9415 11.4707C23.7541 12.108 23.5667 12.58 23.4964 12.7453C23.5667 12.462 23.6604 12.1552 23.8009 11.8247Z" fill="#66D2FF"></path> <path d="M24.2465 9.53589C24.2699 10.1496 24.1528 10.8104 23.9185 11.4713C24.0825 10.9285 24.223 10.244 24.2465 9.53589Z" fill="#FFBD00"></path> <path d="M26.6545 18.484C26.71 18.5818 26.635 18.7085 26.5229 18.6989C26.0748 18.6606 25.1217 18.55 23.9645 18.2458C23.4257 16.9241 22.9103 14.9179 23.4725 12.77C23.5428 12.6048 23.7302 12.1328 23.9176 11.4955C23.9176 11.4955 23.9176 11.4955 23.9176 11.4719C24.1519 10.811 24.2456 10.1501 24.2456 9.53644V9.51284C24.3159 7.78984 23.7537 5.87801 21.2003 5.09912C23.2149 5.66559 25.0421 7.03455 25.0421 10.1029C25.0421 15.1967 26.2342 17.7442 26.6545 18.484Z" fill="#66D2FF"></path> <path d="M24.2437 9.51198C24.1734 6.84487 21.8543 4.69702 17.8251 4.74423H17.8016C17.2863 4.76783 16.7006 4.81504 16.0916 4.88584C16.1853 4.86224 16.279 4.86224 16.3961 4.83864C16.4429 4.83864 16.4664 4.83864 16.5132 4.81504C16.5601 4.81504 16.6303 4.81504 16.7006 4.79143C16.8412 4.76783 17.0052 4.76783 17.1926 4.74423C17.2628 4.74423 17.3331 4.74423 17.4034 4.72062C17.4502 4.72062 17.4737 4.72062 17.5205 4.72062C17.7079 4.72062 17.8953 4.69702 18.0827 4.69702C18.2233 4.69702 18.3639 4.69702 18.5278 4.69702C19.3477 4.72062 20.2848 4.81504 21.1515 5.05106H21.1749C23.7518 5.87716 24.314 7.78898 24.2437 9.51198Z" fill="#66D2FF"></path> <path fill-rule="evenodd" clip-rule="evenodd" d="M8.40981 0.0238551C8.40981 0.0238551 7.26196 0.377896 6.74662 1.13318C6.77001 1.06238 6.95742 0.259883 6.69978 0.000252279C6.67633 -0.0233505 0 1.60524 0 6.56184C0 12.4389 3.44358 14.8228 3.58413 14.9172C-3.26842 4.69969 6.8987 2.8289 7.49632 2.71894L7.49852 2.71854L7.50377 2.72754C3.60642 5.91299 3.18606 10.3417 3.30303 12.8874C3.30303 12.2265 3.3733 11.6128 3.51386 11.0227C3.77154 8.87491 4.61487 6.46738 7.00432 5.59412C7.80074 4.90963 8.38642 4.55559 8.38642 4.55559H8.40981C8.12519 3.80557 7.57456 2.84938 7.50377 2.72754L7.51965 2.71457C7.51564 2.71538 7.50855 2.71669 7.49852 2.71854L7.49621 2.71457C7.49621 2.71457 8.66751 1.15679 8.40981 0.0238551ZM4.52133 2.12435C4.52133 2.12435 5.48181 0.684581 6.53593 0.306937C6.55938 0.306937 6.72334 2.02994 4.52133 2.12435ZM8.15228 0.44864C7.3558 0.873492 7.05126 1.74679 7.05126 1.74679C7.70387 1.56746 8.02258 0.765716 8.12015 0.520278C8.13815 0.474988 8.14862 0.44864 8.15228 0.44864Z" fill="#66D2FF"></path> <path d="M3.32753 12.8871C3.32753 13.548 3.42123 14.2089 3.58521 14.917C-3.39565 4.50816 7.28647 2.76156 7.52072 2.71436C3.63206 5.90073 3.18698 10.3144 3.32753 12.8871Z" fill="#66D2FF"></path> <path d="M3.58361 14.9168C3.3962 14.2087 3.32593 13.5242 3.32593 12.887C3.3962 14.0907 3.58361 14.8696 3.58361 14.9168Z" fill="#00B4FF"></path> <path d="M4.51962 2.1243C4.51962 2.1243 5.48008 0.684529 6.53424 0.306885C6.55766 0.306885 6.72164 2.02988 4.51962 2.1243Z" fill="#5AC8F6"></path> <path d="M8.1286 0.447998C8.1286 0.447998 7.80064 1.55733 7.02759 1.74615C7.05101 1.74615 7.35555 0.872848 8.1286 0.447998Z" fill="#5AC8F6"></path> </svg> 