<svg xmlns="http://www.w3.org/2000/svg" viewBox="0 0 89 84"><defs><style>.cls-1{fill:#b7d4ff;}.cls-2{fill:#508fee;}.cls-3{fill:#314490;}.cls-4{fill:none;}</style></defs><title>comprar_casa</title><g id="Capa_2" data-name="Capa 2"><g id="Capa_1-2" data-name="Capa 1"><g id="Grupo_1861" data-name="Grupo 1861"><path id="Trazado_1843" data-name="Trazado 1843" class="cls-1" d="M8.19,83.76V42.47L26.1,17.36,45,44.21V84Z"/><path id="Trazado_1844" data-name="Trazado 1844" class="cls-2" d="M80.81,44.71,45,44.21V84H81Z"/><path id="Trazado_1845" data-name="Trazado 1845" class="cls-3" d="M26.1,17.35l37.05-.24,17.66,27.6L45,44.22Z"/><path id="Trazado_1846" data-name="Trazado 1846" class="cls-3" d="M18.31,57.91V83.78H29.5V57.66Z"/><path id="Trazado_1847" data-name="Trazado 1847" class="cls-3" d="M54.07,52.47v8.71h5V52.72S53.32,52.47,54.07,52.47Z"/><path id="Trazado_1890" data-name="Trazado 1890" class="cls-2" d="M57,10.9V35l7.26-.34V10.56S56.23,10.9,57,10.9Z"/><path id="Trazado_1892" data-name="Trazado 1892" class="cls-3" d="M53.21,8.55,57,10.92l7.26-.35L60.48,8.21S52.46,8.55,53.21,8.55Z"/><path id="Trazado_1888" data-name="Trazado 1888" class="cls-3" d="M66.66,52.47v8.71h5V52.72S65.92,52.47,66.66,52.47Z"/><path id="Trazado_1849" data-name="Trazado 1849" class="cls-3" d="M54,65v8.71h5l0-8.78S53.26,65,54,65Z"/><path id="Trazado_1889" data-name="Trazado 1889" class="cls-3" d="M66.6,65v8.71h5l0-8.78S65.85,65,66.6,65Z"/><path id="Trazado_1891" data-name="Trazado 1891" class="cls-1" d="M57,10.9V35L53.2,32.67V8.55Z"/></g><rect class="cls-4" width="89" height="84"/></g></g></svg>