<svg xmlns="http://www.w3.org/2000/svg" viewBox="0 0 30 30"><defs><style>.cls-1{fill:none;}</style></defs><title>pdf</title><g id="Capa_2" data-name="Capa 2"><g id="Capa_1-2" data-name="Capa 1"><g id="Grupo_1702" data-name="Grupo 1702"><path id="Trazado_1725" data-name="Trazado 1725" d="M23.74,26.87H6.26a.76.76,0,0,1-.76-.76V3.89a.76.76,0,0,1,.76-.76h13V7.45a.92.92,0,0,0,.92.92H24.5V26.11A.76.76,0,0,1,23.74,26.87ZM8.92,18.52h1V17.2h.73a1.57,1.57,0,0,0,1.76-1.35,1.21,1.21,0,0,0,0-.19v0a1.49,1.49,0,0,0-1.48-1.52h-2Zm1-2.18V15h.74c.48,0,.79.23.79.66v0a.69.69,0,0,1-.69.67H9.89Zm3.22,2.18h1.71a2.21,2.21,0,0,0,2.33-2.05s0-.1,0-.15h0A2.19,2.19,0,0,0,15,14.12H13.11ZM14.82,15a1.26,1.26,0,0,1,1.33,1.19v.13h0A1.25,1.25,0,0,1,15,17.64h-.88V15ZM18,18.52h1v-1.7h2.1v-.88H19V15h2.38v-.88H18Zm1.73-11.4v-4L24.5,7.88h-4A.77.77,0,0,1,19.75,7.12Z"/></g><rect class="cls-1" width="30" height="30"/></g></g></svg>