<svg xmlns="http://www.w3.org/2000/svg" viewBox="0 0 89.2 84"><defs><style>.cls-1{fill:#2a3a7c;}.cls-2,.cls-4,.cls-6,.cls-7{fill:none;}.cls-2{stroke:#5e6ca3;}.cls-3{fill:#b7d4ff;}.cls-4{stroke:#508fee;}.cls-5{fill:#508fee;}.cls-6{stroke:#314490;}</style></defs><title>refinanciar</title><g id="Capa_2" data-name="Capa 2"><g id="Capa_1-2" data-name="Capa 1"><g id="Grupo_1862" data-name="Grupo 1862"><rect id="Rectángulo_1517" data-name="Rectángulo 1517" class="cls-1" x="5.53" y="67.07" width="38.55" height="7.96"/><path id="Trazado_1863" data-name="Trazado 1863" class="cls-2" d="M8.78,67.07V75"/><path id="Trazado_1874" data-name="Trazado 1874" class="cls-2" d="M30,67.07V75"/><path id="Trazado_1871" data-name="Trazado 1871" class="cls-2" d="M38.25,67.07V75"/><path id="Trazado_1864" data-name="Trazado 1864" class="cls-2" d="M13.39,67.07V75"/><path id="Trazado_1873" data-name="Trazado 1873" class="cls-2" d="M33.65,67.07V75"/><path id="Trazado_1867" data-name="Trazado 1867" class="cls-2" d="M21.68,67.07V75"/><path id="Trazado_1865" data-name="Trazado 1865" class="cls-2" d="M17.07,67.07V75"/><path id="Trazado_1866" data-name="Trazado 1866" class="cls-2" d="M25.36,67.07V75"/><path id="Trazado_1869" data-name="Trazado 1869" class="cls-2" d="M41.94,67.07V75"/></g><g id="Grupo_1880" data-name="Grupo 1880"><rect id="Rectángulo_1517-2" data-name="Rectángulo 1517-2" class="cls-3" x="4.6" y="35.76" width="38.55" height="7.96"/><path id="Trazado_1863-2" data-name="Trazado 1863-2" class="cls-4" d="M7.86,35.76V43.7"/><path id="Trazado_1874-2" data-name="Trazado 1874-2" class="cls-4" d="M29,35.76V43.7"/><path id="Trazado_1871-2" data-name="Trazado 1871-2" class="cls-4" d="M37.33,35.76V43.7"/><path id="Trazado_1864-2" data-name="Trazado 1864-2" class="cls-4" d="M12.47,35.76V43.7"/><path id="Trazado_1873-2" data-name="Trazado 1873-2" class="cls-4" d="M32.73,35.76V43.7"/><path id="Trazado_1867-2" data-name="Trazado 1867-2" class="cls-4" d="M20.76,35.76V43.7"/><path id="Trazado_1865-2" data-name="Trazado 1865-2" class="cls-4" d="M16.15,35.76V43.7"/><path id="Trazado_1866-2" data-name="Trazado 1866-2" class="cls-4" d="M24.44,35.76V43.7"/><path id="Trazado_1869-2" data-name="Trazado 1869-2" class="cls-4" d="M41,35.76V43.7"/></g><g id="Grupo_1885" data-name="Grupo 1885"><rect id="Rectángulo_1517-3" data-name="Rectángulo 1517-3" class="cls-3" x="6.45" y="20.11" width="38.55" height="7.96"/><path id="Trazado_1863-3" data-name="Trazado 1863-3" class="cls-4" d="M9.71,20.11v7.94"/><path id="Trazado_1874-3" data-name="Trazado 1874-3" class="cls-4" d="M30.88,20.11v7.94"/><path id="Trazado_1871-3" data-name="Trazado 1871-3" class="cls-4" d="M39.17,20.11v7.94"/><path id="Trazado_1864-3" data-name="Trazado 1864-3" class="cls-4" d="M14.31,20.11v7.94"/><path id="Trazado_1873-3" data-name="Trazado 1873-3" class="cls-4" d="M34.57,20.11v7.94"/><path id="Trazado_1867-3" data-name="Trazado 1867-3" class="cls-4" d="M22.6,20.11v7.94"/><path id="Trazado_1865-3" data-name="Trazado 1865-3" class="cls-4" d="M18,20.11v7.94"/><path id="Trazado_1866-3" data-name="Trazado 1866-3" class="cls-4" d="M26.28,20.11v7.94"/><path id="Trazado_1869-3" data-name="Trazado 1869-3" class="cls-4" d="M42.86,20.11v7.94"/></g><g id="Grupo_1883" data-name="Grupo 1883"><rect id="Rectángulo_1517-4" data-name="Rectángulo 1517-4" class="cls-3" x="46.04" y="58.78" width="38.55" height="7.96"/><path id="Trazado_1863-4" data-name="Trazado 1863-4" class="cls-4" d="M49.3,58.78v7.94"/><path id="Trazado_1874-4" data-name="Trazado 1874-4" class="cls-4" d="M70.48,58.78v7.94"/><path id="Trazado_1871-4" data-name="Trazado 1871-4" class="cls-4" d="M78.77,58.78v7.94"/><path id="Trazado_1864-4" data-name="Trazado 1864-4" class="cls-4" d="M53.91,58.78v7.94"/><path id="Trazado_1873-4" data-name="Trazado 1873-4" class="cls-4" d="M74.17,58.78v7.94"/><path id="Trazado_1867-4" data-name="Trazado 1867-4" class="cls-4" d="M62.19,58.78v7.94"/><path id="Trazado_1865-4" data-name="Trazado 1865-4" class="cls-4" d="M57.59,58.78v7.94"/><path id="Trazado_1866-4" data-name="Trazado 1866-4" class="cls-4" d="M65.88,58.78v7.94"/><path id="Trazado_1869-4" data-name="Trazado 1869-4" class="cls-4" d="M82.45,58.78v7.94"/></g><g id="Grupo_1878" data-name="Grupo 1878"><rect id="Rectángulo_1517-5" data-name="Rectángulo 1517-5" class="cls-3" x="4.6" y="51.42" width="38.55" height="7.96"/><path id="Trazado_1863-5" data-name="Trazado 1863-5" class="cls-4" d="M7.86,51.42v7.93"/><path id="Trazado_1874-5" data-name="Trazado 1874-5" class="cls-4" d="M29,51.42v7.93"/><path id="Trazado_1871-5" data-name="Trazado 1871-5" class="cls-4" d="M37.33,51.42v7.93"/><path id="Trazado_1864-5" data-name="Trazado 1864-5" class="cls-4" d="M12.47,51.42v7.93"/><path id="Trazado_1873-5" data-name="Trazado 1873-5" class="cls-4" d="M32.73,51.42v7.93"/><path id="Trazado_1867-5" data-name="Trazado 1867-5" class="cls-4" d="M20.76,51.42v7.93"/><path id="Trazado_1865-5" data-name="Trazado 1865-5" class="cls-4" d="M16.15,51.42v7.93"/><path id="Trazado_1866-5" data-name="Trazado 1866-5" class="cls-4" d="M24.44,51.42v7.93"/><path id="Trazado_1869-5" data-name="Trazado 1869-5" class="cls-4" d="M41,51.42v7.93"/></g><g id="Grupo_1877" data-name="Grupo 1877"><rect id="Rectángulo_1517-6" data-name="Rectángulo 1517-6" class="cls-5" x="3.68" y="59.21" width="38.55" height="7.96"/><path id="Trazado_1863-6" data-name="Trazado 1863-6" class="cls-6" d="M39,59.21v7.94"/><path id="Trazado_1874-6" data-name="Trazado 1874-6" class="cls-6" d="M17.8,59.21v7.94"/><path id="Trazado_1871-6" data-name="Trazado 1871-6" class="cls-6" d="M9.51,59.21v7.94"/><path id="Trazado_1864-6" data-name="Trazado 1864-6" class="cls-6" d="M34.37,59.21v7.94"/><path id="Trazado_1873-6" data-name="Trazado 1873-6" class="cls-6" d="M14.11,59.21v7.94"/><path id="Trazado_1867-6" data-name="Trazado 1867-6" class="cls-6" d="M26.08,59.21v7.94"/><path id="Trazado_1865-6" data-name="Trazado 1865-6" class="cls-6" d="M30.69,59.21v7.94"/><path id="Trazado_1866-6" data-name="Trazado 1866-6" class="cls-6" d="M22.4,59.21v7.94"/><path id="Trazado_1869-6" data-name="Trazado 1869-6" class="cls-6" d="M5.83,59.21v7.94"/></g><g id="Grupo_1881" data-name="Grupo 1881"><rect id="Rectángulo_1517-7" data-name="Rectángulo 1517-7" class="cls-5" x="1.84" y="27.9" width="38.55" height="7.96"/><path id="Trazado_1863-7" data-name="Trazado 1863-7" class="cls-6" d="M5.1,27.9v7.94"/><path id="Trazado_1874-7" data-name="Trazado 1874-7" class="cls-6" d="M26.28,27.9v7.94"/><path id="Trazado_1871-7" data-name="Trazado 1871-7" class="cls-6" d="M34.57,27.9v7.94"/><path id="Trazado_1864-7" data-name="Trazado 1864-7" class="cls-6" d="M9.71,27.9v7.94"/><path id="Trazado_1873-7" data-name="Trazado 1873-7" class="cls-6" d="M30,27.9v7.94"/><path id="Trazado_1867-7" data-name="Trazado 1867-7" class="cls-6" d="M18,27.9v7.94"/><path id="Trazado_1865-7" data-name="Trazado 1865-7" class="cls-6" d="M13.39,27.9v7.94"/><path id="Trazado_1866-7" data-name="Trazado 1866-7" class="cls-6" d="M21.68,27.9v7.94"/><path id="Trazado_1869-7" data-name="Trazado 1869-7" class="cls-6" d="M38.25,27.9v7.94"/></g><g id="Grupo_1884" data-name="Grupo 1884"><rect id="Rectángulo_1517-8" data-name="Rectángulo 1517-8" class="cls-5" x="50.65" y="50.92" width="38.55" height="7.96"/><path id="Trazado_1863-8" data-name="Trazado 1863-8" class="cls-6" d="M53.91,50.92v7.94"/><path id="Trazado_1874-8" data-name="Trazado 1874-8" class="cls-6" d="M75.09,50.92v7.94"/><path id="Trazado_1871-8" data-name="Trazado 1871-8" class="cls-6" d="M83.37,50.92v7.94"/><path id="Trazado_1864-8" data-name="Trazado 1864-8" class="cls-6" d="M58.51,50.92v7.94"/><path id="Trazado_1873-8" data-name="Trazado 1873-8" class="cls-6" d="M78.77,50.92v7.94"/><path id="Trazado_1867-8" data-name="Trazado 1867-8" class="cls-6" d="M66.8,50.92v7.94"/><path id="Trazado_1865-8" data-name="Trazado 1865-8" class="cls-6" d="M62.19,50.92v7.94"/><path id="Trazado_1866-8" data-name="Trazado 1866-8" class="cls-6" d="M70.48,50.92v7.94"/><path id="Trazado_1869-8" data-name="Trazado 1869-8" class="cls-6" d="M87.06,50.92v7.94"/></g><g id="Grupo_1879" data-name="Grupo 1879"><rect id="Rectángulo_1517-9" data-name="Rectángulo 1517-9" class="cls-1" y="43.55" width="38.55" height="7.96"/><path id="Trazado_1863-9" data-name="Trazado 1863-9" class="cls-2" d="M35.29,43.55v7.94"/><path id="Trazado_1874-9" data-name="Trazado 1874-9" class="cls-2" d="M14.11,43.55v7.94"/><path id="Trazado_1871-9" data-name="Trazado 1871-9" class="cls-2" d="M5.83,43.55v7.94"/><path id="Trazado_1864-9" data-name="Trazado 1864-9" class="cls-2" d="M30.69,43.55v7.94"/><path id="Trazado_1873-9" data-name="Trazado 1873-9" class="cls-2" d="M10.43,43.55v7.94"/><path id="Trazado_1867-9" data-name="Trazado 1867-9" class="cls-2" d="M22.4,43.55v7.94"/><path id="Trazado_1865-9" data-name="Trazado 1865-9" class="cls-2" d="M27,43.55v7.94"/><path id="Trazado_1866-9" data-name="Trazado 1866-9" class="cls-2" d="M18.72,43.55v7.94"/><path id="Trazado_1869-9" data-name="Trazado 1869-9" class="cls-2" d="M2.14,43.55v7.94"/></g><g id="Grupo_1882" data-name="Grupo 1882"><rect id="Rectángulo_1517-10" data-name="Rectángulo 1517-10" class="cls-1" x="48.81" y="66.57" width="38.55" height="7.96"/><path id="Trazado_1863-10" data-name="Trazado 1863-10" class="cls-2" d="M84.1,66.58v7.93"/><path id="Trazado_1874-10" data-name="Trazado 1874-10" class="cls-2" d="M62.92,66.58v7.93"/><path id="Trazado_1871-10" data-name="Trazado 1871-10" class="cls-2" d="M54.63,66.58v7.93"/><path id="Trazado_1864-10" data-name="Trazado 1864-10" class="cls-2" d="M79.49,66.58v7.93"/><path id="Trazado_1873-10" data-name="Trazado 1873-10" class="cls-2" d="M59.24,66.58v7.93"/><path id="Trazado_1867-10" data-name="Trazado 1867-10" class="cls-2" d="M71.21,66.58v7.93"/><path id="Trazado_1865-10" data-name="Trazado 1865-10" class="cls-2" d="M75.81,66.58v7.93"/><path id="Trazado_1866-10" data-name="Trazado 1866-10" class="cls-2" d="M67.52,66.58v7.93"/><path id="Trazado_1869-10" data-name="Trazado 1869-10" class="cls-2" d="M51,66.58v7.93"/></g><rect class="cls-7" x="0.1" width="89" height="84"/></g></g></svg>