<svg xmlns="http://www.w3.org/2000/svg" viewBox="0 0 311 248.96"><defs><style>.cls-1{fill:#508fee;}.cls-2{fill:#1a0947;}.cls-2,.cls-3{opacity:0.56;}.cls-10,.cls-2,.cls-3,.cls-9{isolation:isolate;}.cls-3{fill:#fedf00;}.cls-4{fill:#b7d4ff;}.cls-5{fill:#314490;}.cls-6{fill:#feed71;}.cls-11,.cls-7{fill:none;stroke:#baaa35;}.cls-10,.cls-8{fill:#baaa35;}.cls-10{font-size:18.92px;font-family:ProximaNova-Thin, Proxima Nova;font-weight:200;}.cls-11{stroke-miterlimit:10;}</style></defs><title>valuar</title><g id="Capa_2" data-name="Capa 2"><g id="Capa_1-2" data-name="Capa 1"><path class="cls-1" d="M311,0V128.18A188.55,188.55,0,0,1,188.67,173C89.61,173,8.31,96.91,0,0Z"/><path class="cls-2" d="M311,0V170.8A171,171,0,0,1,168.45,2.23c0-.75,0-1.48,0-2.23Z"/><path class="cls-3" d="M311,32.62V247a109.13,109.13,0,1,1,0-214.42Z"/><g id="Grupo_1861" data-name="Grupo 1861"><path id="Trazado_1843" data-name="Trazado 1843" class="cls-4" d="M98.53,231.77V156.64l28.22-45.71,29.8,48.88v72.41Z"/><path id="Trazado_1844" data-name="Trazado 1844" class="cls-1" d="M212.81,160.77,156.36,160l.19,72.23,56.45-1.1Z"/><path id="Trazado_1845" data-name="Trazado 1845" class="cls-5" d="M126.75,110.93l58.42-.4,28,50.24L156.69,160Z"/><path id="Trazado_1846" data-name="Trazado 1846" class="cls-5" d="M114.47,199.46v32.4h17.64V199.14Z"/><path id="Trazado_1893" data-name="Trazado 1893" class="cls-5" d="M108.49,175.59V189h10V175.46Z"/><path id="Trazado_1896" data-name="Trazado 1896" class="cls-5" d="M108.49,154.41v13.45h10V154.28Z"/><path id="Trazado_1894" data-name="Trazado 1894" class="cls-5" d="M130.4,175.59V189h10V175.46Z"/><path id="Trazado_1895" data-name="Trazado 1895" class="cls-5" d="M130.4,154.41v13.45h10V154.28Z"/></g><g id="Grupo_1874" data-name="Grupo 1874"><g id="Grupo_1854" data-name="Grupo 1854"><rect id="Rectángulo_1517" data-name="Rectángulo 1517" class="cls-6" x="184.49" y="223.41" width="41.69" height="8.6"/><path id="Trazado_1863" data-name="Trazado 1863" class="cls-7" d="M187.75,223.41V232"/><path id="Trazado_1874" data-name="Trazado 1874" class="cls-7" d="M207.6,223.41V232"/><path id="Trazado_1868" data-name="Trazado 1868" class="cls-7" d="M197.67,223.41V232"/><path id="Trazado_1871" data-name="Trazado 1871" class="cls-7" d="M217.53,223.41V232"/><path id="Trazado_1864" data-name="Trazado 1864" class="cls-7" d="M191.06,223.41V232"/><path id="Trazado_1873" data-name="Trazado 1873" class="cls-7" d="M210.91,223.41V232"/><path id="Trazado_1867" data-name="Trazado 1867" class="cls-7" d="M201,223.41V232"/><path id="Trazado_1870" data-name="Trazado 1870" class="cls-7" d="M220.83,223.41V232"/><path id="Trazado_1865" data-name="Trazado 1865" class="cls-7" d="M194.37,223.41V232"/><path id="Trazado_1872" data-name="Trazado 1872" class="cls-7" d="M214.22,223.41V232"/><path id="Trazado_1866" data-name="Trazado 1866" class="cls-7" d="M204.29,223.41V232"/><path id="Trazado_1869" data-name="Trazado 1869" class="cls-7" d="M224.14,223.41V232"/></g><g id="Grupo_1855" data-name="Grupo 1855"><rect id="Rectángulo_1518" data-name="Rectángulo 1518" class="cls-6" x="187.8" y="214.81" width="41.69" height="8.6"/><path id="Trazado_1886" data-name="Trazado 1886" class="cls-7" d="M226.24,214.81v8.58"/><path id="Trazado_1878" data-name="Trazado 1878" class="cls-7" d="M206.38,214.81v8.58"/><path id="Trazado_1883" data-name="Trazado 1883" class="cls-7" d="M216.31,214.81v8.58"/><path id="Trazado_1877" data-name="Trazado 1877" class="cls-7" d="M196.46,214.81v8.58"/><path id="Trazado_1885" data-name="Trazado 1885" class="cls-7" d="M222.93,214.81v8.58"/><path id="Trazado_1879" data-name="Trazado 1879" class="cls-7" d="M203.07,214.81v8.58"/><path id="Trazado_1882" data-name="Trazado 1882" class="cls-7" d="M213,214.81v8.58"/><path id="Trazado_1875" data-name="Trazado 1875" class="cls-7" d="M193.15,214.81v8.58"/><path id="Trazado_1884" data-name="Trazado 1884" class="cls-7" d="M219.62,214.81v8.58"/><path id="Trazado_1880" data-name="Trazado 1880" class="cls-7" d="M199.76,214.81v8.58"/><path id="Trazado_1881" data-name="Trazado 1881" class="cls-7" d="M209.69,214.81v8.58"/><path id="Trazado_1876" data-name="Trazado 1876" class="cls-7" d="M189.84,214.81v8.58"/></g><g id="Grupo_1856" data-name="Grupo 1856"><rect id="Rectángulo_1518-2" data-name="Rectángulo 1518-2" class="cls-6" x="183.83" y="206.21" width="41.69" height="8.6"/><path id="Trazado_1886-2" data-name="Trazado 1886-2" class="cls-7" d="M222.26,206.21v8.58"/><path id="Trazado_1878-2" data-name="Trazado 1878-2" class="cls-7" d="M202.41,206.21v8.58"/><path id="Trazado_1883-2" data-name="Trazado 1883-2" class="cls-7" d="M212.34,206.21v8.58"/><path id="Trazado_1877-2" data-name="Trazado 1877-2" class="cls-7" d="M192.48,206.21v8.58"/><path id="Trazado_1885-2" data-name="Trazado 1885-2" class="cls-7" d="M219,206.21v8.58"/><path id="Trazado_1879-2" data-name="Trazado 1879-2" class="cls-7" d="M199.1,206.21v8.58"/><path id="Trazado_1882-2" data-name="Trazado 1882-2" class="cls-7" d="M209,206.21v8.58"/><path id="Trazado_1875-2" data-name="Trazado 1875-2" class="cls-7" d="M189.18,206.21v8.58"/><path id="Trazado_1884-2" data-name="Trazado 1884-2" class="cls-7" d="M215.65,206.21v8.58"/><path id="Trazado_1880-2" data-name="Trazado 1880-2" class="cls-7" d="M195.79,206.21v8.58"/><path id="Trazado_1881-2" data-name="Trazado 1881-2" class="cls-7" d="M205.72,206.21v8.58"/><path id="Trazado_1876-2" data-name="Trazado 1876-2" class="cls-7" d="M185.87,206.21v8.58"/></g><g id="Grupo_1857" data-name="Grupo 1857"><rect id="Rectángulo_1518-3" data-name="Rectángulo 1518-3" class="cls-6" x="187.14" y="197.6" width="41.69" height="8.6"/><path id="Trazado_1886-3" data-name="Trazado 1886-3" class="cls-7" d="M190,197.6v8.59"/><path id="Trazado_1878-3" data-name="Trazado 1878-3" class="cls-7" d="M212.91,197.6v8.59"/><path id="Trazado_1883-3" data-name="Trazado 1883-3" class="cls-7" d="M206.94,197.6v8.59"/><path id="Trazado_1885-3" data-name="Trazado 1885-3" class="cls-7" d="M196,197.6v8.59"/><path id="Trazado_1875-3" data-name="Trazado 1875-3" class="cls-7" d="M223.87,197.6v8.59"/><path id="Trazado_1884-3" data-name="Trazado 1884-3" class="cls-7" d="M201,197.6v8.59"/><path id="Trazado_1880-3" data-name="Trazado 1880-3" class="cls-7" d="M217.89,197.6v8.59"/></g><g id="Grupo_1858" data-name="Grupo 1858"><rect id="Rectángulo_1518-4" data-name="Rectángulo 1518-4" class="cls-6" x="195.74" y="170.47" width="8.6" height="41.68" transform="translate(-7.95 373.95) rotate(-85.01)"/><path id="Trazado_1886-4" data-name="Trazado 1886-4" class="cls-7" d="M217.93,188.56l-.74,8.55"/><path id="Trazado_1878-4" data-name="Trazado 1878-4" class="cls-7" d="M198.16,186.83l-.75,8.55"/><path id="Trazado_1883-4" data-name="Trazado 1883-4" class="cls-7" d="M208.05,187.7l-.75,8.55"/><path id="Trazado_1877-3" data-name="Trazado 1877-3" class="cls-7" d="M188.27,186l-.74,8.55"/><path id="Trazado_1885-4" data-name="Trazado 1885-4" class="cls-7" d="M214.64,188.27l-.75,8.55"/><path id="Trazado_1879-3" data-name="Trazado 1879-3" class="cls-7" d="M194.87,186.54l-.75,8.55"/><path id="Trazado_1882-3" data-name="Trazado 1882-3" class="cls-7" d="M204.75,187.41,204,196"/><path id="Trazado_1875-4" data-name="Trazado 1875-4" class="cls-7" d="M185,185.68l-.75,8.55"/><path id="Trazado_1884-4" data-name="Trazado 1884-4" class="cls-7" d="M211.34,188l-.74,8.55"/><path id="Trazado_1880-4" data-name="Trazado 1880-4" class="cls-7" d="M191.57,186.26l-.75,8.55"/><path id="Trazado_1881-3" data-name="Trazado 1881-3" class="cls-7" d="M201.46,187.12l-.75,8.55"/><path id="Trazado_1876-3" data-name="Trazado 1876-3" class="cls-7" d="M181.68,185.39l-.74,8.55"/></g><g id="Grupo_1853" data-name="Grupo 1853"><path id="Trazado_1851" data-name="Trazado 1851" class="cls-6" d="M209.45,217.48a18.43,18.43,0,0,1-16.14,18.3c-.6.07-1.21.12-1.82.13h-1a18.44,18.44,0,0,1-.71-36.83c.39,0,.79,0,1.19,0s.8,0,1.19,0l1.1.1A18.43,18.43,0,0,1,209.45,217.48Z"/><path id="Trazado_1852" data-name="Trazado 1852" class="cls-8" d="M214,217.48a18.44,18.44,0,0,1-18,18.43h-4.59c.61,0,1.22-.06,1.82-.13a18.44,18.44,0,0,0,0-36.59c-.36-.05-.72-.08-1.09-.1h4.57A18.43,18.43,0,0,1,214,217.48Z"/><path id="Trazado_1887" data-name="Trazado 1887" class="cls-7" d="M191,203a14.45,14.45,0,1,1-14.45,14.45A14.45,14.45,0,0,1,191,203Z"/><g id="Grupo_1852" data-name="Grupo 1852"><g id="S" class="cls-9"><text class="cls-10" transform="translate(184.88 222.61)">S</text></g><line id="Línea_1" data-name="Línea 1" class="cls-11" x1="190.96" y1="207.51" x2="190.96" y2="228"/></g></g></g></g></g></svg>