<svg xmlns="http://www.w3.org/2000/svg" viewBox="0 0 89 84"><defs><style>.cls-1{fill:#314490;}.cls-2{fill:#b7d4ff;}.cls-3{fill:#508fee;}.cls-4{fill:none;}</style></defs><title>comprar_terreno</title><g id="Capa_2" data-name="Capa 2"><g id="Capa_1-2" data-name="Capa 1"><g id="Grupo_1863" data-name="Grupo 1863"><path id="Trazado_1843" data-name="Trazado 1843" class="cls-1" d="M88.23,74.58v-8.1H.77V75Z"/><path id="Trazado_1898" data-name="Trazado 1898" class="cls-2" d="M88.23,66.56,68.6,42.44H18.25L.77,66.56Z"/></g><g id="Grupo_1864" data-name="Grupo 1864"><path id="Trazado_1900" data-name="Trazado 1900" class="cls-3" d="M59.33,48.9a.54.54,0,0,1,.66,0,10.45,10.45,0,0,1,3,3.24,22.72,22.72,0,0,1,1.92,4,34.72,34.72,0,0,1,1.32,4.47H63a38.74,38.74,0,0,0-2.13-7.31c-.49-1.26-1-2.5-1.65-3.7A.53.53,0,0,1,59.33,48.9Z"/><path id="Trazado_1901" data-name="Trazado 1901" class="cls-3" d="M64.33,60.61v-.07a46.32,46.32,0,0,0-.73-10.45,47.3,47.3,0,0,0-1.07-4.81.69.69,0,0,1,.29-.76.61.61,0,0,1,.78.1,12.39,12.39,0,0,1,2.7,4.57,27.35,27.35,0,0,1,1.31,5.26,41.21,41.21,0,0,1,.5,6.18Z"/><path id="Trazado_1902" data-name="Trazado 1902" class="cls-3" d="M73.8,55a.66.66,0,0,0-.72-.36,12.62,12.62,0,0,0-4.85,2.26,26.73,26.73,0,0,0-4,3.62l0,0h4.6c.45-.5.88-1,1.28-1.37a47.94,47.94,0,0,1,3.59-3.39A.67.67,0,0,0,73.8,55Z"/><path id="Trazado_1904" data-name="Trazado 1904" class="cls-3" d="M72.16,48.07a.59.59,0,0,0-.72,0,11,11,0,0,0-3.17,3.46,24.65,24.65,0,0,0-2.07,4.3,37,37,0,0,0-1.41,4.79h3.43a42.67,42.67,0,0,1,2.28-7.84c.53-1.35,1.12-2.67,1.78-4A.59.59,0,0,0,72.16,48.07Z"/></g><g id="Grupo_1865" data-name="Grupo 1865"><path id="Trazado_1900-2" data-name="Trazado 1900-2" class="cls-3" d="M32.68,38.91a.54.54,0,0,0-.66-.06,10.45,10.45,0,0,0-3,3.24,23.07,23.07,0,0,0-1.92,4,34.72,34.72,0,0,0-1.32,4.47H29a39.5,39.5,0,0,1,2.13-7.31c.49-1.26,1-2.49,1.66-3.7A.52.52,0,0,0,32.68,38.91Z"/><path id="Trazado_1901-2" data-name="Trazado 1901-2" class="cls-3" d="M27.68,50.61v-.07a46.36,46.36,0,0,1,.73-10.45,48.13,48.13,0,0,1,1.07-4.81.69.69,0,0,0-.29-.76.61.61,0,0,0-.78.1,12.48,12.48,0,0,0-2.7,4.57,27.35,27.35,0,0,0-1.31,5.26,41.31,41.31,0,0,0-.5,6.18Z"/><path id="Trazado_1902-2" data-name="Trazado 1902-2" class="cls-3" d="M18.21,45a.65.65,0,0,1,.72-.37,12.69,12.69,0,0,1,4.85,2.26,27.8,27.8,0,0,1,4,3.63l0,0h-4.6c-.45-.5-.88-1-1.28-1.37q-1.71-1.79-3.59-3.39A.66.66,0,0,1,18.21,45Z"/><path id="Trazado_1904-2" data-name="Trazado 1904-2" class="cls-3" d="M19.86,38.07a.57.57,0,0,1,.71,0,11.07,11.07,0,0,1,3.18,3.46,24.24,24.24,0,0,1,2.06,4.3,37,37,0,0,1,1.41,4.79H23.79a42.12,42.12,0,0,0-2.28-7.84c-.53-1.35-1.12-2.67-1.78-4A.58.58,0,0,1,19.86,38.07Z"/></g><rect class="cls-4" width="89" height="84"/></g></g></svg>