<svg xmlns="http://www.w3.org/2000/svg" viewBox="0 0 30 30"><defs><style>.cls-1{fill:none;}</style></defs><title>exe</title><g id="Capa_2" data-name="Capa 2"><g id="Capa_1-2" data-name="Capa 1"><g id="Grupo_1701" data-name="Grupo 1701"><path id="Trazado_1724" data-name="Trazado 1724" d="M23.83,27H6.17a.76.76,0,0,1-.77-.77V3.77A.76.76,0,0,1,6.17,3H19.3V7.37a.92.92,0,0,0,.93.93H24.6V26.23A.76.76,0,0,1,23.83,27ZM9,18.55h3.38v-.86H9.94v-.93H12v-.87H9.94V15h2.37v-.86H9Zm7-4.43L15,15.56l-.93-1.44H12.94l1.48,2.18-1.54,2.25H14L15,17l1,1.52h1.14l-1.54-2.27,1.48-2.16Zm1.9,4.43h3.38v-.86H18.82v-.93h2.09v-.87H18.82V15H21.2v-.86H17.85ZM19.8,7V3l4.8,4.8h-4A.76.76,0,0,1,19.8,7Z"/></g><rect class="cls-1" width="30" height="30"/></g></g></svg>