<svg xmlns="http://www.w3.org/2000/svg" viewBox="0 0 30 30"><defs><style>.cls-1{fill:none;}</style></defs><title>imprimir</title><g id="Capa_2" data-name="Capa 2"><g id="Capa_1-2" data-name="Capa 1"><path id="Trazado_1723" data-name="Trazado 1723" d="M24.91,21.55H23V19.73h.92V17.87h-18v1.86h.87v1.84H4.92A.94.94,0,0,1,4,20.63V11.36c0-.9,3.83-1.82,10.51-1.82h.92C22,9.54,26,10.46,26,11.36v9.27a1.07,1.07,0,0,1-1,.92Zm-2.39-9.27a1.4,1.4,0,0,0-1.39,1.4,1.46,1.46,0,0,0,1.39,1.39,1.4,1.4,0,0,0,0-2.79ZM7.75,4a1,1,0,0,1,1-1H21.1a.94.94,0,0,1,.92.92V8.57H7.75ZM22.12,27.14a.94.94,0,0,1-.92.92H8.75a.94.94,0,0,1-.92-.92V18.78H22.12Zm-1.94-7.42H9.67v.92H20.18Zm0,1.84H9.67v1H20.18Zm0,1.84H9.67v.91H20.18Zm0,1.91H9.67v.92H20.18Z"/><rect class="cls-1" width="30" height="30"/></g></g></svg>