<svg xmlns="http://www.w3.org/2000/svg" viewBox="0 0 89 84"><defs><style>.cls-1{fill:#b7d4ff;}.cls-2{fill:#314490;}.cls-3,.cls-6{fill:none;}.cls-3{stroke:#508fee;stroke-width:3px;}.cls-4,.cls-5{isolation:isolate;}.cls-5{font-size:31px;fill:#508fee;font-family:ProximaNova-Regular, Proxima Nova;}</style></defs><title>obtener_liquidez</title><g id="Capa_2" data-name="Capa 2"><g id="Capa_1-2" data-name="Capa 1"><path id="Trazado_1851" data-name="Trazado 1851" class="cls-1" d="M71.09,44.66A30.36,30.36,0,0,1,44.5,74.79a27.33,27.33,0,0,1-3,.22l-.78,0-.79,0a30.37,30.37,0,0,1-1.16-60.66q1-.06,1.95-.06t2,.06c.61,0,1.21.1,1.8.17A30.38,30.38,0,0,1,71.09,44.66Z"/><path id="Trazado_1852" data-name="Trazado 1852" class="cls-2" d="M78.65,44.66A30.37,30.37,0,0,1,49.06,75H41.51a27.51,27.51,0,0,0,3-.22,30.37,30.37,0,0,0,0-60.27c-.6-.07-1.2-.13-1.81-.17h7.54A30.38,30.38,0,0,1,78.65,44.66Z"/><path id="Trazado_1887" data-name="Trazado 1887" class="cls-3" d="M40.72,20.86a23.8,23.8,0,1,1-23.8,23.8,23.79,23.79,0,0,1,23.8-23.8Z"/><g id="Grupo_1852" data-name="Grupo 1852"><g id="S" class="cls-4"><text class="cls-5" transform="translate(31.66 54.78)">S</text></g><path id="Trazado_1897" data-name="Trazado 1897" class="cls-3" d="M40.86,27.17V60.92"/></g><rect class="cls-6" width="89" height="84"/></g></g></svg>